<?xml version="1.0" encoding="UTF-8" standalone="no"?>
<svg width="800" height="600" xmlns="http://www.w3.org/2000/svg" xmlns:xlink="http://www.w3.org/1999/xlink">
  <!-- Background -->
  <rect width="800" height="600" fill="white"/>
  
  <style>
    text { font-family: Arial, sans-serif; }
    .title { font-size: 24px; font-weight: bold; }
    .op-title { font-size: 18px; font-weight: bold; fill: white; }
    .label { font-size: 14px; }
    .box { stroke-width: 2px; }
    .op-box { fill: #ecf0f1; stroke: #34495e; }
    .op-header { stroke: #34495e; }
    .flow { stroke: #34495e; stroke-width: 2px; fill: none; marker-end: url(#arrowhead); }
    .condition { fill: #f1c40f; stroke: #34495e; }
  </style>

  <defs>
    <marker id="arrowhead" markerWidth="10" markerHeight="7" refX="9" refY="3.5" orient="auto">
      <polygon points="0 0, 10 3.5, 0 7" />
    </marker>
    <marker id="arrow" viewBox="0 0 10 10" refX="9" refY="5" markerWidth="6" markerHeight="6" orient="auto">
      <path d="M 0 0 L 10 5 L 0 10 z" fill="#555" />
    </marker>
    <linearGradient id="header-grad" x1="0%" y1="0%" x2="0%" y2="100%">
      <stop offset="0%" stop-color="#2c3e50" stop-opacity="1" />
      <stop offset="100%" stop-color="#34495e" stop-opacity="1" />
    </linearGradient>
    <linearGradient id="box-grad-blue" x1="0%" y1="0%" x2="0%" y2="100%">
      <stop offset="0%" stop-color="#e3f2fd" stop-opacity="1" />
      <stop offset="100%" stop-color="#bbdefb" stop-opacity="1" />
    </linearGradient>
    <linearGradient id="box-grad-green" x1="0%" y1="0%" x2="0%" y2="100%">
      <stop offset="0%" stop-color="#e8f5e9" stop-opacity="1" />
      <stop offset="100%" stop-color="#c8e6c9" stop-opacity="1" />
    </linearGradient>
    <linearGradient id="box-grad-orange" x1="0%" y1="0%" x2="0%" y2="100%">
      <stop offset="0%" stop-color="#fff8e1" stop-opacity="1" />
      <stop offset="100%" stop-color="#ffecb3" stop-opacity="1" />
    </linearGradient>
    <linearGradient id="action-grad" x1="0%" y1="0%" x2="0%" y2="100%">
      <stop offset="0%" stop-color="#e1f5fe" />
      <stop offset="100%" stop-color="#b3e5fc" />
    </linearGradient>
    <filter id="shadow" x="-10%" y="-10%" width="120%" height="130%">
      <feDropShadow dx="2" dy="3" stdDeviation="2" flood-opacity="0.2" />
    </filter>
  </defs>

  <!-- Título -->
  <rect x="50" y="20" width="700" height="50" rx="10" ry="10" fill="url(#header-grad)" filter="url(#shadow)" />
  <text x="400" y="50" font-family="Arial, sans-serif" font-size="22" text-anchor="middle" fill="#ffffff" font-weight="bold">Fluxo de Operações - BancoPro</text>

  <!-- Gerenciamento de Clientes -->
  <rect x="50" y="100" width="200" height="450" rx="10" ry="10" fill="url(#box-grad-blue)" stroke="#1565c0" stroke-width="2" filter="url(#shadow)" />
  <rect x="50" y="100" width="200" height="40" rx="10" ry="10" fill="#1565c0" />
  <text x="150" y="125" font-family="Arial, sans-serif" font-size="16" text-anchor="middle" fill="#fff" font-weight="bold">Gestão de Clientes</text>

  <!-- Operações de Cliente -->
  <rect x="70" y="150" width="160" height="40" rx="5" ry="5" fill="url(#action-grad)" stroke="#0288d1" stroke-width="1" />
  <text x="150" y="175" font-family="Arial, sans-serif" font-size="14" text-anchor="middle" fill="#333">Cadastrar Cliente</text>

  <rect x="70" y="200" width="160" height="40" rx="5" ry="5" fill="url(#action-grad)" stroke="#0288d1" stroke-width="1" />
  <text x="150" y="225" font-family="Arial, sans-serif" font-size="14" text-anchor="middle" fill="#333">Consultar Cliente</text>

  <rect x="70" y="250" width="160" height="40" rx="5" ry="5" fill="url(#action-grad)" stroke="#0288d1" stroke-width="1" />
  <text x="150" y="275" font-family="Arial, sans-serif" font-size="14" text-anchor="middle" fill="#333">Editar Cliente</text>

  <rect x="70" y="300" width="160" height="40" rx="5" ry="5" fill="url(#action-grad)" stroke="#0288d1" stroke-width="1" />
  <text x="150" y="325" font-family="Arial, sans-serif" font-size="14" text-anchor="middle" fill="#333">Excluir Cliente</text>

  <!-- Regras de Negócio Cliente -->
  <rect x="70" y="380" width="160" height="150" rx="5" ry="5" fill="#e8eaf6" stroke="#9fa8da" stroke-width="1" />
  <text x="150" y="400" font-family="Arial, sans-serif" font-size="12" text-anchor="middle" fill="#333" font-weight="bold">Regras de Negócio</text>
  <text x="150" y="425" font-family="Arial, sans-serif" font-size="11" text-anchor="middle" fill="#333">• CPF deve ser único</text>
  <text x="150" y="450" font-family="Arial, sans-serif" font-size="11" text-anchor="middle" fill="#333">• Nome é obrigatório</text>
  <text x="150" y="475" font-family="Arial, sans-serif" font-size="11" text-anchor="middle" fill="#333">• Email deve ser válido</text>
  <text x="150" y="500" font-family="Arial, sans-serif" font-size="11" text-anchor="middle" fill="#333">• Cliente com contas não</text>
  <text x="150" y="515" font-family="Arial, sans-serif" font-size="11" text-anchor="middle" fill="#333">  pode ser excluído</text>

  <!-- Gerenciamento de Contas -->
  <rect x="300" y="100" width="200" height="450" rx="10" ry="10" fill="url(#box-grad-green)" stroke="#2e7d32" stroke-width="2" filter="url(#shadow)" />
  <rect x="300" y="100" width="200" height="40" rx="10" ry="10" fill="#2e7d32" />
  <text x="400" y="125" font-family="Arial, sans-serif" font-size="16" text-anchor="middle" fill="#fff" font-weight="bold">Gestão de Contas</text>

  <!-- Operações de Conta -->
  <rect x="320" y="150" width="160" height="40" rx="5" ry="5" fill="url(#action-grad)" stroke="#0288d1" stroke-width="1" />
  <text x="400" y="175" font-family="Arial, sans-serif" font-size="14" text-anchor="middle" fill="#333">Criar Conta</text>

  <rect x="320" y="200" width="160" height="40" rx="5" ry="5" fill="url(#action-grad)" stroke="#0288d1" stroke-width="1" />
  <text x="400" y="225" font-family="Arial, sans-serif" font-size="14" text-anchor="middle" fill="#333">Listar Contas do Cliente</text>

  <rect x="320" y="250" width="160" height="40" rx="5" ry="5" fill="url(#action-grad)" stroke="#0288d1" stroke-width="1" />
  <text x="400" y="275" font-family="Arial, sans-serif" font-size="14" text-anchor="middle" fill="#333">Consultar Saldo</text>

  <rect x="320" y="300" width="160" height="40" rx="5" ry="5" fill="url(#action-grad)" stroke="#0288d1" stroke-width="1" />
  <text x="400" y="325" font-family="Arial, sans-serif" font-size="14" text-anchor="middle" fill="#333">Encerrar Conta</text>

  <!-- Regras de Negócio Conta -->
  <rect x="320" y="380" width="160" height="150" rx="5" ry="5" fill="#e8eaf6" stroke="#9fa8da" stroke-width="1" />
  <text x="400" y="400" font-family="Arial, sans-serif" font-size="12" text-anchor="middle" fill="#333" font-weight="bold">Regras de Negócio</text>
  <text x="400" y="425" font-family="Arial, sans-serif" font-size="11" text-anchor="middle" fill="#333">• Número de conta único</text>
  <text x="400" y="450" font-family="Arial, sans-serif" font-size="11" text-anchor="middle" fill="#333">• Saldo inicial zero</text>
  <text x="400" y="475" font-family="Arial, sans-serif" font-size="11" text-anchor="middle" fill="#333">• Conta com saldo não</text>
  <text x="400" y="490" font-family="Arial, sans-serif" font-size="11" text-anchor="middle" fill="#333">  pode ser encerrada</text>
  <text x="400" y="515" font-family="Arial, sans-serif" font-size="11" text-anchor="middle" fill="#333">• Diferentes tipos de conta</text>

  <!-- Transações Financeiras -->
  <rect x="550" y="100" width="200" height="450" rx="10" ry="10" fill="url(#box-grad-orange)" stroke="#ff8f00" stroke-width="2" filter="url(#shadow)" />
  <rect x="550" y="100" width="200" height="40" rx="10" ry="10" fill="#ff8f00" />
  <text x="650" y="125" font-family="Arial, sans-serif" font-size="16" text-anchor="middle" fill="#fff" font-weight="bold">Transações Financeiras</text>

  <!-- Operações de Transação -->
  <rect x="570" y="150" width="160" height="40" rx="5" ry="5" fill="url(#action-grad)" stroke="#0288d1" stroke-width="1" />
  <text x="650" y="175" font-family="Arial, sans-serif" font-size="14" text-anchor="middle" fill="#333">Depósito</text>

  <rect x="570" y="200" width="160" height="40" rx="5" ry="5" fill="url(#action-grad)" stroke="#0288d1" stroke-width="1" />
  <text x="650" y="225" font-family="Arial, sans-serif" font-size="14" text-anchor="middle" fill="#333">Saque</text>

  <rect x="570" y="250" width="160" height="40" rx="5" ry="5" fill="url(#action-grad)" stroke="#0288d1" stroke-width="1" />
  <text x="650" y="275" font-family="Arial, sans-serif" font-size="14" text-anchor="middle" fill="#333">Transferência</text>

  <rect x="570" y="300" width="160" height="40" rx="5" ry="5" fill="url(#action-grad)" stroke="#0288d1" stroke-width="1" />
  <text x="650" y="325" font-family="Arial, sans-serif" font-size="14" text-anchor="middle" fill="#333">Extrato de Transações</text>

  <!-- Regras de Negócio Transação -->
  <rect x="570" y="380" width="160" height="150" rx="5" ry="5" fill="#e8eaf6" stroke="#9fa8da" stroke-width="1" />
  <text x="650" y="400" font-family="Arial, sans-serif" font-size="12" text-anchor="middle" fill="#333" font-weight="bold">Regras de Negócio</text>
  <text x="650" y="425" font-family="Arial, sans-serif" font-size="11" text-anchor="middle" fill="#333">• Valor > 0</text>
  <text x="650" y="450" font-family="Arial, sans-serif" font-size="11" text-anchor="middle" fill="#333">• Saque/Transferência</text>
  <text x="650" y="465" font-family="Arial, sans-serif" font-size="11" text-anchor="middle" fill="#333">  requer saldo suficiente</text>
  <text x="650" y="490" font-family="Arial, sans-serif" font-size="11" text-anchor="middle" fill="#333">• Registro com data/hora</text>
  <text x="650" y="515" font-family="Arial, sans-serif" font-size="11" text-anchor="middle" fill="#333">• Descrição obrigatória</text>

  <!-- Conexões -->
  <!-- Cliente -> Conta -->
  <line x1="250" y1="170" x2="300" y2="170" stroke="#555" stroke-width="2" marker-end="url(#arrow)" />
  <text x="275" y="160" font-family="Arial, sans-serif" font-size="10" text-anchor="middle" fill="#555">possui</text>

  <!-- Conta -> Transações -->
  <line x1="500" y1="170" x2="550" y2="170" stroke="#555" stroke-width="2" marker-end="url(#arrow)" />
  <text x="525" y="160" font-family="Arial, sans-serif" font-size="10" text-anchor="middle" fill="#555">realiza</text>

  <!-- Transações -> Conta (atualiza saldo) -->
  <path d="M 550 250 C 525 250 525 270 500 270" stroke="#555" stroke-width="2" fill="none" marker-end="url(#arrow)" />
  <text x="525" y="240" font-family="Arial, sans-serif" font-size="10" text-anchor="middle" fill="#555">atualiza</text>

  <!-- Ciclo do fluxo -->
  <path d="M 400 560 C 150 560 150 570 150 540" stroke="#555" stroke-width="2" fill="none" marker-end="url(#arrow)" stroke-dasharray="5,3" />
  <path d="M 650 540 C 650 570 650 560 400 560" stroke="#555" stroke-width="2" fill="none" marker-end="url(#arrow)" stroke-dasharray="5,3" />
  <text x="400" y="580" font-family="Arial, sans-serif" font-size="12" text-anchor="middle" fill="#555" font-style="italic">Fluxo contínuo de operações</text>
</svg>
